<svg width="58" height="145" viewBox="0 0 58 145" fill="none" xmlns="http://www.w3.org/2000/svg">
<circle cx="8" cy="5" r="5" fill="#111D5E" fill-opacity="0.16"/>
<circle cx="23" cy="5" r="5" fill="#111D5E" fill-opacity="0.16"/>
<circle cx="38" cy="5" r="5" fill="#111D5E" fill-opacity="0.16"/>
<circle cx="53" cy="5" r="5" fill="#111D5E" fill-opacity="0.16"/>
<circle cx="8" cy="20" r="5" fill="#111D5E" fill-opacity="0.16"/>
<circle cx="23" cy="20" r="5" fill="#111D5E" fill-opacity="0.16"/>
<circle cx="38" cy="20" r="5" fill="#111D5E" fill-opacity="0.16"/>
<circle cx="53" cy="20" r="5" fill="#111D5E" fill-opacity="0.16"/>
<circle cx="8" cy="35" r="5" fill="#111D5E" fill-opacity="0.16"/>
<circle cx="23" cy="35" r="5" fill="#111D5E" fill-opacity="0.16"/>
<circle cx="38" cy="35" r="5" fill="#111D5E" fill-opacity="0.16"/>
<circle cx="53" cy="35" r="5" fill="#111D5E" fill-opacity="0.16"/>
<circle cx="8" cy="50" r="5" fill="#111D5E" fill-opacity="0.16"/>
<circle cx="23" cy="50" r="5" fill="#111D5E" fill-opacity="0.16"/>
<circle cx="38" cy="50" r="5" fill="#111D5E" fill-opacity="0.16"/>
<circle cx="53" cy="50" r="5" fill="#111D5E" fill-opacity="0.16"/>
<circle cx="8" cy="65" r="5" fill="#111D5E" fill-opacity="0.16"/>
<circle cx="23" cy="65" r="5" fill="#111D5E" fill-opacity="0.16"/>
<circle cx="38" cy="65" r="5" fill="#111D5E" fill-opacity="0.16"/>
<circle cx="53" cy="65" r="5" fill="#111D5E" fill-opacity="0.16"/>
<circle cx="8" cy="80" r="5" fill="#111D5E" fill-opacity="0.16"/>
<circle cx="23" cy="80" r="5" fill="#111D5E" fill-opacity="0.16"/>
<circle cx="38" cy="80" r="5" fill="#111D5E" fill-opacity="0.16"/>
<circle cx="53" cy="80" r="5" fill="#111D5E" fill-opacity="0.16"/>
<circle cx="8" cy="95" r="5" fill="#111D5E" fill-opacity="0.16"/>
<circle cx="23" cy="95" r="5" fill="#111D5E" fill-opacity="0.16"/>
<circle cx="38" cy="95" r="5" fill="#111D5E" fill-opacity="0.16"/>
<circle cx="53" cy="95" r="5" fill="#111D5E" fill-opacity="0.16"/>
<circle cx="8" cy="110" r="5" fill="#111D5E" fill-opacity="0.16"/>
<circle cx="23" cy="110" r="5" fill="#111D5E" fill-opacity="0.16"/>
<circle cx="38" cy="110" r="5" fill="#111D5E" fill-opacity="0.16"/>
<circle cx="53" cy="110" r="5" fill="#111D5E" fill-opacity="0.16"/>
<circle cx="8" cy="125" r="5" fill="#111D5E" fill-opacity="0.16"/>
<circle cx="23" cy="125" r="5" fill="#111D5E" fill-opacity="0.16"/>
<circle cx="38" cy="125" r="5" fill="#111D5E" fill-opacity="0.16"/>
<circle cx="53" cy="125" r="5" fill="#111D5E" fill-opacity="0.16"/>
<circle cx="8" cy="140" r="5" fill="#111D5E" fill-opacity="0.16"/>
<circle cx="23" cy="140" r="5" fill="#111D5E" fill-opacity="0.16"/>
<circle cx="38" cy="140" r="5" fill="#111D5E" fill-opacity="0.16"/>
<circle cx="53" cy="140" r="5" fill="#111D5E" fill-opacity="0.16"/>
</svg>
