<svg width="37" height="37" viewBox="0 0 37 37" fill="none" xmlns="http://www.w3.org/2000/svg">
<path d="M24.2812 4.625C22.2081 4.625 20.3292 5.0135 18.8608 5.74541C17.3935 6.47731 16.1875 7.66941 16.1875 9.25V13.875C16.1875 14.0242 16.2372 14.1687 16.2603 14.3086C15.103 14.0145 13.9129 13.8688 12.7188 13.875C10.6456 13.875 8.76669 14.2635 7.29825 14.9954C5.83097 15.7273 4.625 16.9194 4.625 18.5V27.75C4.625 29.3306 5.83097 30.5227 7.29941 31.2546C8.76669 31.9865 10.6456 32.375 12.7188 32.375C14.7919 32.375 16.6708 31.9865 18.1392 31.2546C19.6054 30.5227 20.8125 29.3306 20.8125 27.75V27.2806C21.9436 27.5863 23.1096 27.7441 24.2812 27.75C26.3544 27.75 28.2333 27.3615 29.7017 26.6296C31.1679 25.8977 32.375 24.7056 32.375 23.125V9.25C32.375 7.66941 31.169 6.47731 29.7006 5.74541C28.2345 5.0135 26.3556 4.625 24.2812 4.625ZM24.2812 6.9375C26.0422 6.9375 27.6101 7.31675 28.653 7.84053C29.6971 8.36431 30.0625 8.91584 30.0625 9.25C30.0625 9.58531 29.6971 10.1357 28.653 10.6595C27.6112 11.1832 26.0422 11.5625 24.2812 11.5625C22.5203 11.5625 20.9524 11.1832 19.9095 10.6595C18.8654 10.1357 18.5 9.58416 18.5 9.25C18.5 8.91469 18.8654 8.36431 19.9095 7.84053C20.9513 7.31675 22.5203 6.9375 24.2812 6.9375ZM18.5 12.5384C18.6214 12.6054 18.7347 12.6922 18.8619 12.7546C20.3292 13.4865 22.2081 13.875 24.2812 13.875C26.3544 13.875 28.2333 13.4865 29.7017 12.7546C29.8278 12.6922 29.9411 12.6054 30.0625 12.5384V13.875C30.0625 14.2103 29.6971 14.7607 28.653 15.2845C27.6101 15.8082 26.0422 16.1875 24.2812 16.1875C22.5203 16.1875 20.9524 15.8082 19.9095 15.2845C18.8654 14.7607 18.5 14.2092 18.5 13.875V12.5384ZM12.7188 16.1875C14.4797 16.1875 16.0476 16.5668 17.0905 17.0905C18.1346 17.6143 18.5 18.1658 18.5 18.5C18.5 18.8353 18.1346 19.3857 17.0905 19.9095C16.0476 20.4332 14.4797 20.8125 12.7188 20.8125C10.9578 20.8125 9.38991 20.4332 8.34697 19.9095C7.30287 19.3857 6.9375 18.8342 6.9375 18.5C6.9375 18.1647 7.30287 17.6143 8.34697 17.0905C9.38875 16.5668 10.9578 16.1875 12.7188 16.1875ZM30.0625 17.1634V18.5C30.0625 18.8353 29.6971 19.3857 28.653 19.9095C27.6101 20.4332 26.0422 20.8125 24.2812 20.8125C23.1034 20.8189 21.9322 20.6358 20.8125 20.2702V18.5C20.8125 18.3508 20.7628 18.2063 20.7397 18.0664C21.815 18.3462 23.0071 18.5 24.2812 18.5C26.3544 18.5 28.2333 18.1115 29.7017 17.3796C29.8278 17.3172 29.9411 17.2304 30.0625 17.1634ZM6.9375 21.7884C7.05891 21.8554 7.17222 21.9422 7.29941 22.0046C8.76669 22.7365 10.6456 23.125 12.7188 23.125C14.7919 23.125 16.6708 22.7365 18.1392 22.0046C18.2653 21.9422 18.3786 21.8554 18.5 21.7884V23.125C18.5 23.4603 18.1346 24.0107 17.0905 24.5345C16.0476 25.0583 14.4797 25.4375 12.7188 25.4375C10.9578 25.4375 9.38991 25.0583 8.34697 24.5345C7.30287 24.0107 6.9375 23.4592 6.9375 23.125V21.7884ZM30.0625 21.7884V23.125C30.0625 23.4603 29.6971 24.0107 28.653 24.5345C27.6101 25.0583 26.0422 25.4375 24.2812 25.4375C22.9666 25.4375 21.7791 25.2525 20.8125 24.9311V22.6914C21.8739 22.9712 23.0302 23.125 24.2812 23.125C26.3544 23.125 28.2333 22.7365 29.7017 22.0046C29.8278 21.9422 29.9411 21.8554 30.0625 21.7884ZM6.9375 26.4134C7.05891 26.4804 7.17222 26.5672 7.29941 26.6296C8.76669 27.3615 10.6456 27.75 12.7188 27.75C14.7919 27.75 16.6708 27.3615 18.1392 26.6296C18.2653 26.5672 18.3786 26.4804 18.5 26.4134V27.75C18.5 28.0853 18.1346 28.6357 17.0905 29.1595C16.0476 29.6833 14.4797 30.0625 12.7188 30.0625C10.9578 30.0625 9.38991 29.6833 8.34697 29.1595C7.30287 28.6357 6.9375 28.0842 6.9375 27.75V26.4134Z" fill="#85BB65"/>
</svg>
