<svg width="157" height="157" viewBox="0 0 157 157" fill="none" xmlns="http://www.w3.org/2000/svg">
<path d="M157 78.5C157 121.854 121.854 157 78.5 157C35.1456 157 0 121.854 0 78.5C0 35.1456 35.1456 0 78.5 0C121.854 0 157 35.1456 157 78.5ZM23.6071 78.5C23.6071 108.817 48.1835 133.393 78.5 133.393C108.817 133.393 133.393 108.817 133.393 78.5C133.393 48.1835 108.817 23.6071 78.5 23.6071C48.1835 23.6071 23.6071 48.1835 23.6071 78.5Z" fill="#40DAB2"/>
<path d="M155.739 92.5145C158.698 76.2032 156.418 59.3737 149.225 44.438C142.032 29.5024 130.295 17.2273 115.697 9.37216L104.511 30.1608C114.719 35.6537 122.926 44.2373 127.956 54.6814C132.986 65.1255 134.581 76.8939 132.511 88.2999L155.739 92.5145Z" fill="#FEC771"/>
</svg>
