<svg width="24" height="24" viewBox="0 0 24 24" fill="none" xmlns="http://www.w3.org/2000/svg">
<g clip-path="url(#clip0)">
<path fill-rule="evenodd" clip-rule="evenodd" d="M7.125 2.25C6.62772 2.25 6.15081 2.44754 5.79917 2.79917C5.44754 3.15081 5.25 3.62772 5.25 4.125C5.25 4.62228 5.44754 5.09919 5.79917 5.45083C6.15081 5.80246 6.62772 6 7.125 6H10.5885C10.239 4.773 9.7755 3.8985 9.2715 3.3105C8.6265 2.5575 7.899 2.25 7.125 2.25ZM3 4.125C3 4.8 3.162 5.4375 3.45 6H2.625C1.92881 6 1.26113 6.27656 0.768845 6.76884C0.276562 7.26113 0 7.92881 0 8.625L0 11.625C0 12.672 0.6135 13.575 1.5 13.998V21.375C1.5 22.824 2.676 24 4.125 24H19.875C20.5712 24 21.2389 23.7234 21.7312 23.2312C22.2234 22.7389 22.5 22.0712 22.5 21.375V13.998C23.3865 13.5765 24 12.672 24 11.625V8.625C24 8.28028 23.9321 7.93894 23.8002 7.62046C23.6683 7.30198 23.4749 7.0126 23.2312 6.76884C22.9874 6.52509 22.698 6.33173 22.3795 6.19982C22.0611 6.0679 21.7197 6 21.375 6H20.55C20.8709 5.37109 21.0251 4.67032 20.9977 3.96479C20.9702 3.25925 20.7622 2.57257 20.3934 1.97046C20.0246 1.36836 19.5074 0.870998 18.8914 0.525987C18.2754 0.180977 17.5811 -0.000130945 16.875 7.10333e-08C15.399 7.10333e-08 14.064 0.63 13.02 1.845C12.6171 2.32322 12.2745 2.84917 12 3.411C11.7253 2.85022 11.3827 2.32529 10.98 1.848C9.9345 0.63 8.5995 7.10333e-08 7.125 7.10333e-08C6.03098 7.10333e-08 4.98177 0.434597 4.20818 1.20818C3.4346 1.98177 3 3.03098 3 4.125ZM13.4115 6H16.875C17.3723 6 17.8492 5.80246 18.2008 5.45083C18.5525 5.09919 18.75 4.62228 18.75 4.125C18.75 3.62772 18.5525 3.15081 18.2008 2.79917C17.8492 2.44754 17.3723 2.25 16.875 2.25C16.101 2.25 15.375 2.5575 14.73 3.3105C14.2245 3.8985 13.761 4.773 13.4115 6ZM10.6515 8.25H2.625C2.52554 8.25 2.43016 8.28951 2.35984 8.35983C2.28951 8.43016 2.25 8.52554 2.25 8.625V11.625C2.25 11.832 2.418 12 2.625 12H10.875V8.25H10.6515ZM13.125 8.25V12H21.375C21.4745 12 21.5698 11.9605 21.6402 11.8902C21.7105 11.8198 21.75 11.7245 21.75 11.625V8.625C21.75 8.52554 21.7105 8.43016 21.6402 8.35983C21.5698 8.28951 21.4745 8.25 21.375 8.25H13.125ZM13.125 14.25H20.25V21.375C20.25 21.4745 20.2105 21.5698 20.1402 21.6402C20.0698 21.7105 19.9745 21.75 19.875 21.75H13.125V14.25ZM10.875 14.25V21.75H4.125C4.02554 21.75 3.93016 21.7105 3.85984 21.6402C3.78951 21.5698 3.75 21.4745 3.75 21.375V14.25H10.875Z" fill="#0779E4"/>
</g>
<defs>
<clipPath id="clip0">
<rect width="24" height="24" fill="white"/>
</clipPath>
</defs>
</svg>
