<svg width="56" height="56" viewBox="0 0 56 56" fill="none" xmlns="http://www.w3.org/2000/svg">
<path d="M36.75 7C33.6122 7 30.7685 7.588 28.546 8.69575C26.3253 9.8035 24.5 11.6077 24.5 14V21C24.5 21.2257 24.5752 21.4445 24.6102 21.6562C22.8585 21.2111 21.0573 20.9906 19.25 21C16.1123 21 13.2685 21.588 11.046 22.6957C8.82525 23.8035 7 25.6077 7 28V42C7 44.3923 8.82525 46.1965 11.0478 47.3042C13.2685 48.412 16.1123 49 19.25 49C22.3877 49 25.2315 48.412 27.454 47.3042C29.673 46.1965 31.5 44.3923 31.5 42V41.2895C33.2119 41.7523 34.9766 41.9911 36.75 42C39.8877 42 42.7315 41.412 44.954 40.3042C47.173 39.1965 49 37.3923 49 35V14C49 11.6077 47.1748 9.8035 44.9523 8.69575C42.7332 7.588 39.8895 7 36.75 7ZM36.75 10.5C39.4152 10.5 41.7882 11.074 43.3667 11.8668C44.947 12.6595 45.5 13.4942 45.5 14C45.5 14.5075 44.947 15.3405 43.3667 16.1332C41.79 16.926 39.4152 17.5 36.75 17.5C34.0847 17.5 31.7118 16.926 30.1332 16.1332C28.553 15.3405 28 14.5058 28 14C28 13.4925 28.553 12.6595 30.1332 11.8668C31.71 11.074 34.0847 10.5 36.75 10.5ZM28 18.977C28.1838 19.0785 28.3552 19.2098 28.5477 19.3043C30.7685 20.412 33.6122 21 36.75 21C39.8877 21 42.7315 20.412 44.954 19.3043C45.1447 19.2098 45.3162 19.0785 45.5 18.977V21C45.5 21.5075 44.947 22.3405 43.3667 23.1332C41.7882 23.926 39.4152 24.5 36.75 24.5C34.0847 24.5 31.7118 23.926 30.1332 23.1332C28.553 22.3405 28 21.5057 28 21V18.977ZM19.25 24.5C21.9152 24.5 24.2882 25.074 25.8668 25.8668C27.447 26.6595 28 27.4942 28 28C28 28.5075 27.447 29.3405 25.8668 30.1332C24.2882 30.926 21.9152 31.5 19.25 31.5C16.5848 31.5 14.2117 30.926 12.6332 30.1332C11.053 29.3405 10.5 28.5058 10.5 28C10.5 27.4925 11.053 26.6595 12.6332 25.8668C14.21 25.074 16.5848 24.5 19.25 24.5ZM45.5 25.977V28C45.5 28.5075 44.947 29.3405 43.3667 30.1332C41.7882 30.926 39.4152 31.5 36.75 31.5C34.9673 31.5097 33.1947 31.2325 31.5 30.6793V28C31.5 27.7743 31.4248 27.5555 31.3898 27.3438C33.0173 27.7673 34.8215 28 36.75 28C39.8877 28 42.7315 27.412 44.954 26.3043C45.1447 26.2098 45.3162 26.0785 45.5 25.977ZM10.5 32.977C10.6837 33.0785 10.8553 33.2098 11.0478 33.3043C13.2685 34.412 16.1123 35 19.25 35C22.3877 35 25.2315 34.412 27.454 33.3043C27.6447 33.2098 27.8162 33.0785 28 32.977V35C28 35.5075 27.447 36.3405 25.8668 37.1332C24.2882 37.926 21.9152 38.5 19.25 38.5C16.5848 38.5 14.2117 37.926 12.6332 37.1332C11.053 36.3405 10.5 35.5058 10.5 35V32.977ZM45.5 32.977V35C45.5 35.5075 44.947 36.3405 43.3667 37.1332C41.7882 37.926 39.4152 38.5 36.75 38.5C34.7603 38.5 32.963 38.22 31.5 37.7335V34.3438C33.1065 34.7673 34.8565 35 36.75 35C39.8877 35 42.7315 34.412 44.954 33.3043C45.1447 33.2098 45.3162 33.0785 45.5 32.977ZM10.5 39.977C10.6837 40.0785 10.8553 40.2098 11.0478 40.3042C13.2685 41.412 16.1123 42 19.25 42C22.3877 42 25.2315 41.412 27.454 40.3042C27.6447 40.2098 27.8162 40.0785 28 39.977V42C28 42.5075 27.447 43.3405 25.8668 44.1333C24.2882 44.926 21.9152 45.5 19.25 45.5C16.5848 45.5 14.2117 44.926 12.6332 44.1333C11.053 43.3405 10.5 42.5057 10.5 42V39.977Z" fill="#0779E4"/>
</svg>
