<svg width="56" height="45" viewBox="0 0 56 45" fill="none" xmlns="http://www.w3.org/2000/svg">
<path d="M45.43 11.1913L41.265 7.02626C40.3432 6.1126 39.0979 5.6 37.8 5.60001H17.955C16.66 5.60001 15.4088 6.11626 14.49 7.02626L10.325 11.1913H0V33.565H5.6C7.14 33.565 8.3825 32.3225 8.39125 30.7913H9.1875L16.59 37.4763C19.2938 39.6725 23.0475 39.725 25.83 37.8088C26.9237 38.7538 28.105 39.2 29.4262 39.2C31.0187 39.2 32.515 38.5525 33.6963 37.1C35.63 37.8613 37.9137 37.3275 39.2962 35.63L41.5887 32.8038C42.0787 32.2 42.385 31.5088 42.5425 30.7913H47.6087C47.6175 32.3225 48.8687 33.565 50.4 33.565H56V11.1913H45.43ZM4.2 30.765C3.43 30.765 2.8 30.135 2.8 29.365C2.8 28.595 3.43 27.965 4.2 27.965C4.97 27.965 5.6 28.595 5.6 29.365C5.6 30.1438 4.97 30.765 4.2 30.765ZM38.325 30.1613L36.0412 32.9788C35.7962 33.2763 35.3587 33.3288 35.0525 33.0838L32.9613 31.3863L30.3363 34.58C29.8113 35.2188 29.0238 35 28.7613 34.79L25.5412 32.0338L24.1762 33.7138C22.96 35.21 20.7463 35.4375 19.3375 34.2913L10.8237 26.5913H8.4V15.3825H12.0662L17.465 9.99251C17.64 9.92251 17.7887 9.86126 17.9638 9.79126H22.925L19.5387 12.8975C16.9662 15.2513 16.8175 19.2238 19.1537 21.7613C20.4487 23.1788 24.5087 25.3663 28.035 22.1463L28.7525 21.49L38.22 29.1725C38.5175 29.4175 38.5612 29.8638 38.325 30.1613ZM47.6 26.5913H41.545C41.3438 26.3463 41.1162 26.1188 40.8713 25.9175L31.885 18.62L32.9787 17.6225C33.5475 17.0975 33.5912 16.2138 33.0662 15.645L32.1125 14.6213C31.5875 14.0525 30.7037 14.0175 30.135 14.5338L25.305 18.9613C24.4738 19.7225 23.0562 19.7838 22.2775 18.9613C21.4638 18.095 21.5338 16.765 22.3825 15.995L28.1225 10.7363C28.77 10.1413 29.61 9.81751 30.485 9.81751L37.8088 9.80001C37.9925 9.80001 38.1675 9.87001 38.29 10.0013L43.6887 15.3913H47.6V26.5913ZM51.8 30.765C51.03 30.765 50.4 30.135 50.4 29.365C50.4 28.595 51.03 27.965 51.8 27.965C52.57 27.965 53.2 28.595 53.2 29.365C53.2 30.1438 52.57 30.765 51.8 30.765Z" fill="#0779E4"/>
</svg>
