<svg width="144" height="33" viewBox="0 0 144 33" fill="none" xmlns="http://www.w3.org/2000/svg">
<path d="M37.65 30.225C36.2167 30.225 35.1 29.925 34.3 29.325C33.5167 28.725 32.9667 27.9167 32.65 26.9C32.35 25.8833 32.2 24.75 32.2 23.5V16.35C32.2 14.9833 32.35 13.7917 32.65 12.775C32.9667 11.7583 33.5167 10.975 34.3 10.425C35.1 9.85833 36.2167 9.575 37.65 9.575C38.9167 9.575 39.9167 9.80833 40.65 10.275C41.4 10.7417 41.9333 11.4083 42.25 12.275C42.5833 13.1417 42.75 14.1833 42.75 15.4V17H40.075V15.575C40.075 14.825 40.0333 14.1667 39.95 13.6C39.8833 13.0167 39.6833 12.5667 39.35 12.25C39.0167 11.9333 38.4583 11.775 37.675 11.775C36.875 11.775 36.2917 11.95 35.925 12.3C35.5583 12.6333 35.3167 13.1167 35.2 13.75C35.1 14.3667 35.05 15.0917 35.05 15.925V23.95C35.05 24.9667 35.1333 25.775 35.3 26.375C35.4667 26.9583 35.7417 27.375 36.125 27.625C36.5083 27.875 37.025 28 37.675 28C38.4417 28 38.9917 27.8333 39.325 27.5C39.6583 27.15 39.8667 26.675 39.95 26.075C40.0333 25.475 40.075 24.775 40.075 23.975V22.475H42.75V23.975C42.75 25.2083 42.6 26.3 42.3 27.25C42 28.1833 41.4833 28.9167 40.75 29.45C40.0167 29.9667 38.9833 30.225 37.65 30.225ZM47.6912 30V9.75H50.5162V18.5H55.7162V9.75H58.5412V30H55.7162V20.525H50.5162V30H47.6912ZM63.9549 30V9.75H71.8049V11.85H66.7799V18.55H70.8549V20.55H66.7799V27.975H71.8549V30H63.9549ZM81.4605 30.225C80.0272 30.225 78.9105 29.925 78.1105 29.325C77.3272 28.725 76.7772 27.9167 76.4605 26.9C76.1605 25.8833 76.0105 24.75 76.0105 23.5V16.35C76.0105 14.9833 76.1605 13.7917 76.4605 12.775C76.7772 11.7583 77.3272 10.975 78.1105 10.425C78.9105 9.85833 80.0272 9.575 81.4605 9.575C82.7272 9.575 83.7272 9.80833 84.4605 10.275C85.2105 10.7417 85.7439 11.4083 86.0605 12.275C86.3939 13.1417 86.5605 14.1833 86.5605 15.4V17H83.8855V15.575C83.8855 14.825 83.8439 14.1667 83.7605 13.6C83.6939 13.0167 83.4939 12.5667 83.1605 12.25C82.8272 11.9333 82.2689 11.775 81.4855 11.775C80.6855 11.775 80.1022 11.95 79.7355 12.3C79.3689 12.6333 79.1272 13.1167 79.0105 13.75C78.9105 14.3667 78.8605 15.0917 78.8605 15.925V23.95C78.8605 24.9667 78.9439 25.775 79.1105 26.375C79.2772 26.9583 79.5522 27.375 79.9355 27.625C80.3189 27.875 80.8355 28 81.4855 28C82.2522 28 82.8022 27.8333 83.1355 27.5C83.4689 27.15 83.6772 26.675 83.7605 26.075C83.8439 25.475 83.8855 24.775 83.8855 23.975V22.475H86.5605V23.975C86.5605 25.2083 86.4105 26.3 86.1105 27.25C85.8105 28.1833 85.2939 28.9167 84.5605 29.45C83.8272 29.9667 82.7939 30.225 81.4605 30.225ZM91.5018 30V9.75H94.3268V19.3L98.9768 9.75H101.602L97.6018 18.675L102.252 30H99.5018L95.6268 20.5L94.3268 22.85V30H91.5018Z" fill="white"/>
<path d="M106.13 30V9.75H110.205C111.555 9.75 112.671 9.93333 113.555 10.3C114.438 10.65 115.088 11.225 115.505 12.025C115.938 12.8083 116.155 13.8417 116.155 15.125C116.155 15.9083 116.071 16.625 115.905 17.275C115.738 17.9083 115.471 18.45 115.105 18.9C114.738 19.3333 114.255 19.65 113.655 19.85L116.53 30H113.805L111.155 20.5H108.955V30H106.13ZM108.955 18.475H110.03C110.83 18.475 111.48 18.375 111.98 18.175C112.48 17.975 112.846 17.6333 113.08 17.15C113.313 16.6667 113.43 15.9917 113.43 15.125C113.43 13.9417 113.213 13.0917 112.78 12.575C112.346 12.0417 111.488 11.775 110.205 11.775H108.955V18.475ZM121.344 30V9.75H129.194V11.85H124.169V18.55H128.244V20.55H124.169V27.975H129.244V30H121.344ZM133.774 30V9.75H141.599V11.775H136.599V18.525H140.474V20.525H136.599V30H133.774Z" fill="#F37121"/>
<rect x="0.714286" y="7.71429" width="24.5714" height="24.5714" stroke="white" stroke-width="1.42857"/>
<path d="M11.5834 14.1437L10.0741 12.6344L9.42603 13.2825L11.5834 15.4399L16.0324 10.9909L15.3844 10.3428L11.5834 14.1437Z" fill="white"/>
<path d="M11.5834 21.1437L10.0741 19.6344L9.42603 20.2825L11.5834 22.4399L16.0324 17.9909L15.3844 17.3428L11.5834 21.1437Z" fill="white"/>
<path d="M11.5834 28.1437L10.0741 26.6344L9.42603 27.2825L11.5834 29.4399L16.0324 24.9909L15.3844 24.3428L11.5834 28.1437Z" fill="white"/>
</svg>
