<svg width="90" height="22" viewBox="0 0 90 22" fill="none" xmlns="http://www.w3.org/2000/svg">
<path d="M23.5313 19.1406C22.6354 19.1406 21.9375 18.9531 21.4375 18.5781C20.9479 18.2031 20.6042 17.6979 20.4062 17.0625C20.2188 16.4271 20.125 15.7187 20.125 14.9375V10.4687C20.125 9.61458 20.2188 8.86979 20.4062 8.23437C20.6042 7.59896 20.9479 7.10937 21.4375 6.76562C21.9375 6.41146 22.6354 6.23437 23.5313 6.23437C24.3229 6.23437 24.9479 6.38021 25.4063 6.67187C25.875 6.96354 26.2083 7.38021 26.4063 7.92187C26.6146 8.46354 26.7188 9.11458 26.7188 9.875V10.875H25.0469V9.98437C25.0469 9.51562 25.0208 9.10417 24.9688 8.75C24.9271 8.38542 24.8021 8.10417 24.5938 7.90625C24.3854 7.70833 24.0365 7.60937 23.5469 7.60937C23.0469 7.60937 22.6823 7.71875 22.4531 7.9375C22.224 8.14583 22.0729 8.44792 22 8.84375C21.9375 9.22917 21.9063 9.68229 21.9063 10.2031V15.2187C21.9063 15.8542 21.9583 16.3594 22.0625 16.7344C22.1667 17.099 22.3385 17.3594 22.5781 17.5156C22.8177 17.6719 23.1406 17.75 23.5469 17.75C24.026 17.75 24.3698 17.6458 24.5781 17.4375C24.7865 17.2187 24.9167 16.9219 24.9688 16.5469C25.0208 16.1719 25.0469 15.7344 25.0469 15.2344V14.2969H26.7188V15.2344C26.7188 16.0052 26.625 16.6875 26.4375 17.2812C26.25 17.8646 25.9271 18.3229 25.4688 18.6562C25.0104 18.9792 24.3646 19.1406 23.5313 19.1406ZM29.807 19V6.34375H31.5726V11.8125H34.8226V6.34375H36.5883V19H34.8226V13.0781H31.5726V19H29.807ZM39.9718 19V6.34375H44.8781V7.65625H41.7374V11.8437H44.2843V13.0937H41.7374V17.7344H44.9093V19H39.9718ZM50.9128 19.1406C50.017 19.1406 49.3191 18.9531 48.8191 18.5781C48.3295 18.2031 47.9858 17.6979 47.7878 17.0625C47.6003 16.4271 47.5066 15.7187 47.5066 14.9375V10.4687C47.5066 9.61458 47.6003 8.86979 47.7878 8.23437C47.9858 7.59896 48.3295 7.10937 48.8191 6.76562C49.3191 6.41146 50.017 6.23437 50.9128 6.23437C51.7045 6.23437 52.3295 6.38021 52.7878 6.67187C53.2566 6.96354 53.5899 7.38021 53.7878 7.92187C53.9962 8.46354 54.1003 9.11458 54.1003 9.875V10.875H52.4285V9.98437C52.4285 9.51562 52.4024 9.10417 52.3503 8.75C52.3087 8.38542 52.1837 8.10417 51.9753 7.90625C51.767 7.70833 51.4181 7.60937 50.9285 7.60937C50.4285 7.60937 50.0639 7.71875 49.8347 7.9375C49.6056 8.14583 49.4545 8.44792 49.3816 8.84375C49.3191 9.22917 49.2878 9.68229 49.2878 10.2031V15.2187C49.2878 15.8542 49.3399 16.3594 49.4441 16.7344C49.5483 17.099 49.7201 17.3594 49.9597 17.5156C50.1993 17.6719 50.5222 17.75 50.9285 17.75C51.4076 17.75 51.7514 17.6458 51.9597 17.4375C52.1681 17.2187 52.2983 16.9219 52.3503 16.5469C52.4024 16.1719 52.4285 15.7344 52.4285 15.2344V14.2969H54.1003V15.2344C54.1003 16.0052 54.0066 16.6875 53.8191 17.2812C53.6316 17.8646 53.3087 18.3229 52.8503 18.6562C52.392 18.9792 51.7462 19.1406 50.9128 19.1406ZM57.1886 19V6.34375H58.9542V12.3125L61.8605 6.34375H63.5011L61.0011 11.9219L63.9073 19H62.1886L59.7667 13.0625L58.9542 14.5312V19H57.1886Z" fill="white"/>
<path d="M66.3311 19V6.34375H68.8779C69.7217 6.34375 70.4196 6.45833 70.9717 6.6875C71.5238 6.90625 71.93 7.26562 72.1904 7.76562C72.4613 8.25521 72.5967 8.90104 72.5967 9.70312C72.5967 10.1927 72.5446 10.6406 72.4404 11.0469C72.3363 11.4427 72.1696 11.7812 71.9404 12.0625C71.7113 12.3333 71.4092 12.5312 71.0342 12.6562L72.8311 19H71.1279L69.4717 13.0625H68.0967V19H66.3311ZM68.0967 11.7969H68.7686C69.2686 11.7969 69.6748 11.7344 69.9873 11.6094C70.2998 11.4844 70.529 11.2708 70.6748 10.9688C70.8206 10.6667 70.8936 10.2448 70.8936 9.70312C70.8936 8.96354 70.7581 8.43229 70.4873 8.10937C70.2165 7.77604 69.68 7.60937 68.8779 7.60937H68.0967V11.7969ZM75.8397 19V6.34375H80.746V7.65625H77.6053V11.8437H80.1522V13.0937H77.6053V17.7344H80.7772V19H75.8397ZM83.6089 19V6.34375H88.4995V7.60937H85.3745V11.8281H87.7964V13.0781H85.3745V19H83.6089Z" fill="#F37121"/>
<rect x="0.446429" y="4.82143" width="15.3571" height="15.3571" stroke="white" stroke-width="0.892857"/>
<path d="M7.23963 8.83995L6.29632 7.89665L5.89127 8.3017L7.23963 9.65006L10.0203 6.86941L9.61522 6.46436L7.23963 8.83995Z" fill="white"/>
<path d="M7.23963 13.215L6.29632 12.2716L5.89127 12.6767L7.23963 14.0251L10.0203 11.2444L9.61522 10.8394L7.23963 13.215Z" fill="white"/>
<path d="M7.23963 17.59L6.29632 16.6466L5.89127 17.0517L7.23963 18.4001L10.0203 15.6194L9.61522 15.2144L7.23963 17.59Z" fill="white"/>
</svg>
