<svg width="199" height="62" viewBox="0 0 199 62" fill="none" xmlns="http://www.w3.org/2000/svg">
<path d="M4 62V52M4 52V7.72486C4 5.30504 6.71761 3.88093 8.70733 5.25808L43.0249 29.0102C44.9342 30.3317 44.6828 33.2282 42.5744 34.201L4 52Z" stroke="#055BCD" stroke-width="8"/>
<path d="M73.1299 34.3H68.6919V42H65.5279V22.4H73.1299C75.3606 22.4 77.0733 22.9273 78.2679 23.982C79.4719 25.0367 80.0739 26.4927 80.0739 28.35C80.0739 30.2073 79.4719 31.6633 78.2679 32.718C77.0733 33.7727 75.3606 34.3 73.1299 34.3ZM73.0459 25.382H68.6919V31.318H73.0459C74.3246 31.318 75.2673 31.0753 75.8739 30.59C76.4806 30.1047 76.7839 29.358 76.7839 28.35C76.7839 27.342 76.4806 26.5953 75.8739 26.11C75.2673 25.6247 74.3246 25.382 73.0459 25.382ZM96.1728 28.588V42H93.2468V40.39C92.2295 41.6967 90.8248 42.35 89.0328 42.35C87.1382 42.35 85.5468 41.6827 84.2588 40.348C82.9708 39.0133 82.3268 37.3287 82.3268 35.294C82.3268 33.2593 82.9708 31.5747 84.2588 30.24C85.5468 28.9053 87.1382 28.238 89.0328 28.238C90.8248 28.238 92.2295 28.896 93.2468 30.212V28.588H96.1728ZM89.3828 30.996C88.1602 30.996 87.1802 31.4113 86.4428 32.242C85.7055 33.0633 85.3368 34.0807 85.3368 35.294C85.3368 36.5073 85.7055 37.5293 86.4428 38.36C87.1802 39.1813 88.1602 39.592 89.3828 39.592C90.5775 39.592 91.5482 39.186 92.2948 38.374C93.0508 37.562 93.4288 36.5353 93.4288 35.294C93.4288 34.0527 93.0508 33.026 92.2948 32.214C91.5482 31.402 90.5775 30.996 89.3828 30.996ZM113.673 28.588L103.089 47.684H99.8415L104.643 39.242L98.6935 28.588H101.983L106.295 36.288L110.453 28.588H113.673ZM124.743 28.588V31.248H120.151V42H117.211V31.248H114.523V28.588H117.211V26.32C117.211 24.892 117.584 23.73 118.331 22.834C119.087 21.938 120.211 21.49 121.705 21.49C123.058 21.49 124.304 21.826 125.443 22.498L124.407 24.962C123.576 24.486 122.741 24.248 121.901 24.248C121.331 24.248 120.897 24.43 120.599 24.794C120.3 25.1487 120.151 25.6573 120.151 26.32V28.588H124.743ZM130.885 21.84V42H127.945V21.84H130.885ZM138.013 29.162C139.114 28.546 140.346 28.238 141.709 28.238C143.071 28.238 144.303 28.546 145.405 29.162C146.506 29.7687 147.369 30.6133 147.995 31.696C148.62 32.7693 148.933 33.9687 148.933 35.294C148.933 36.6193 148.62 37.8233 147.995 38.906C147.369 39.9793 146.506 40.824 145.405 41.44C144.303 42.0467 143.071 42.35 141.709 42.35C140.346 42.35 139.114 42.042 138.013 41.426C136.911 40.81 136.048 39.9653 135.423 38.892C134.807 37.8187 134.499 36.6193 134.499 35.294C134.499 33.9687 134.807 32.7693 135.423 31.696C136.048 30.6227 136.911 29.778 138.013 29.162ZM144.719 32.2C143.916 31.3973 142.913 30.996 141.709 30.996C140.505 30.996 139.501 31.3973 138.699 32.2C137.905 33.0027 137.509 34.034 137.509 35.294C137.509 36.554 137.905 37.5853 138.699 38.388C139.501 39.1907 140.505 39.592 141.709 39.592C142.913 39.592 143.916 39.1907 144.719 38.388C145.521 37.5853 145.923 36.554 145.923 35.294C145.923 34.034 145.521 33.0027 144.719 32.2ZM163.643 28.588L166.989 38.836L170.153 28.588H173.205L168.767 42H165.267L161.949 31.892L158.631 42H155.187L150.749 28.588H153.871L157.021 38.78L160.325 28.588H163.643Z" fill="#055BCD"/>
</svg>
