<svg width="52" height="52" viewBox="0 0 52 52" fill="none" xmlns="http://www.w3.org/2000/svg">
<g clip-path="url(#clip0)">
<path fill-rule="evenodd" clip-rule="evenodd" d="M15.4375 4.875C14.3601 4.875 13.3267 5.30301 12.5649 6.06488C11.803 6.82675 11.375 7.86006 11.375 8.9375C11.375 10.0149 11.803 11.0483 12.5649 11.8101C13.3267 12.572 14.3601 13 15.4375 13H22.9417C22.1845 10.3415 21.1803 8.44675 20.0883 7.17275C18.6908 5.54125 17.1145 4.875 15.4375 4.875ZM6.5 8.9375C6.5 10.4 6.851 11.7812 7.475 13H5.6875C4.17908 13 2.73244 13.5992 1.66583 14.6658C0.599217 15.7324 0 17.1791 0 18.6875L0 25.1875C0 27.456 1.32925 29.4125 3.25 30.329V46.3125C3.25 49.452 5.798 52 8.9375 52H43.0625C44.5709 52 46.0176 51.4008 47.0842 50.3342C48.1508 49.2676 48.75 47.8209 48.75 46.3125V30.329C50.6707 29.4157 52 27.456 52 25.1875V18.6875C52 17.9406 51.8529 17.201 51.5671 16.511C51.2812 15.8209 50.8623 15.194 50.3342 14.6658C49.806 14.1377 49.1791 13.7188 48.489 13.4329C47.799 13.1471 47.0594 13 46.3125 13H44.525C45.2204 11.6374 45.5543 10.119 45.4949 8.59037C45.4355 7.06171 44.9847 5.57389 44.1856 4.26934C43.3866 2.96478 42.2661 1.88716 40.9313 1.13964C39.5966 0.392117 38.0923 -0.000283714 36.5625 1.53905e-07C33.3645 1.53905e-07 30.472 1.365 28.21 3.9975C27.3371 5.03365 26.5948 6.1732 26 7.3905C25.4047 6.17547 24.6625 5.03813 23.79 4.004C21.5247 1.365 18.6322 1.53905e-07 15.4375 1.53905e-07C13.0671 1.53905e-07 10.7938 0.941627 9.11773 2.61773C7.44163 4.29384 6.5 6.56713 6.5 8.9375ZM29.0583 13H36.5625C37.6399 13 38.6733 12.572 39.4351 11.8101C40.197 11.0483 40.625 10.0149 40.625 8.9375C40.625 7.86006 40.197 6.82675 39.4351 6.06488C38.6733 5.30301 37.6399 4.875 36.5625 4.875C34.8855 4.875 33.3125 5.54125 31.915 7.17275C30.8197 8.44675 29.8155 10.3415 29.0583 13ZM23.0782 17.875H5.6875C5.47201 17.875 5.26535 17.9606 5.11298 18.113C4.9606 18.2653 4.875 18.472 4.875 18.6875V25.1875C4.875 25.636 5.239 26 5.6875 26H23.5625V17.875H23.0782ZM28.4375 17.875V26H46.3125C46.528 26 46.7347 25.9144 46.887 25.762C47.0394 25.6097 47.125 25.403 47.125 25.1875V18.6875C47.125 18.472 47.0394 18.2653 46.887 18.113C46.7347 17.9606 46.528 17.875 46.3125 17.875H28.4375ZM28.4375 30.875H43.875V46.3125C43.875 46.528 43.7894 46.7347 43.637 46.887C43.4847 47.0394 43.278 47.125 43.0625 47.125H28.4375V30.875ZM23.5625 30.875V47.125H8.9375C8.72201 47.125 8.51535 47.0394 8.36298 46.887C8.2106 46.7347 8.125 46.528 8.125 46.3125V30.875H23.5625Z" fill="#0779E4"/>
</g>
<defs>
<clipPath id="clip0">
<rect width="52" height="52" fill="white"/>
</clipPath>
</defs>
</svg>
