<svg width="72" height="72" viewBox="0 0 72 72" fill="none" xmlns="http://www.w3.org/2000/svg">
<g clip-path="url(#clip0)">
<path fill-rule="evenodd" clip-rule="evenodd" d="M21.375 6.75C19.8832 6.75 18.4524 7.34263 17.3975 8.39752C16.3426 9.45242 15.75 10.8832 15.75 12.375C15.75 13.8668 16.3426 15.2976 17.3975 16.3525C18.4524 17.4074 19.8832 18 21.375 18H31.7655C30.717 14.319 29.3265 11.6955 27.8145 9.9315C25.8795 7.6725 23.697 6.75 21.375 6.75ZM9 12.375C9 14.4 9.486 16.3125 10.35 18H7.875C5.78642 18 3.78338 18.8297 2.30653 20.3065C0.829685 21.7834 0 23.7864 0 25.875L0 34.875C0 38.016 1.8405 40.725 4.5 41.994V64.125C4.5 68.472 8.028 72 12.375 72H59.625C61.7136 72 63.7166 71.1703 65.1935 69.6935C66.6703 68.2166 67.5 66.2136 67.5 64.125V41.994C70.1595 40.7295 72 38.016 72 34.875V25.875C72 24.8408 71.7963 23.8168 71.4006 22.8614C71.0048 21.9059 70.4247 21.0378 69.6935 20.3065C68.9622 19.5753 68.0941 18.9952 67.1386 18.5994C66.1832 18.2037 65.1592 18 64.125 18H61.65C62.6128 16.1133 63.0752 14.011 62.993 11.8944C62.9107 9.77776 62.2865 7.7177 61.1801 5.91139C60.0738 4.10508 58.5223 2.61299 56.6742 1.57796C54.8261 0.542932 52.7432 -0.000392834 50.625 2.131e-07C46.197 2.131e-07 42.192 1.89 39.06 5.535C37.8513 6.96967 36.8236 8.54751 36 10.233C35.1758 8.55065 34.1481 6.97587 32.94 5.544C29.8035 1.89 25.7985 2.131e-07 21.375 2.131e-07C18.0929 2.131e-07 14.9453 1.30379 12.6246 3.62455C10.3038 5.94532 9 9.09295 9 12.375ZM40.2345 18H50.625C52.1168 18 53.5476 17.4074 54.6025 16.3525C55.6574 15.2976 56.25 13.8668 56.25 12.375C56.25 10.8832 55.6574 9.45242 54.6025 8.39752C53.5476 7.34263 52.1168 6.75 50.625 6.75C48.303 6.75 46.125 7.6725 44.19 9.9315C42.6735 11.6955 41.283 14.319 40.2345 18ZM31.9545 24.75H7.875C7.57663 24.75 7.29048 24.8685 7.0795 25.0795C6.86853 25.2905 6.75 25.5766 6.75 25.875V34.875C6.75 35.496 7.254 36 7.875 36H32.625V24.75H31.9545ZM39.375 24.75V36H64.125C64.4234 36 64.7095 35.8815 64.9205 35.6705C65.1315 35.4595 65.25 35.1734 65.25 34.875V25.875C65.25 25.5766 65.1315 25.2905 64.9205 25.0795C64.7095 24.8685 64.4234 24.75 64.125 24.75H39.375ZM39.375 42.75H60.75V64.125C60.75 64.4234 60.6315 64.7095 60.4205 64.9205C60.2095 65.1315 59.9234 65.25 59.625 65.25H39.375V42.75ZM32.625 42.75V65.25H12.375C12.0766 65.25 11.7905 65.1315 11.5795 64.9205C11.3685 64.7095 11.25 64.4234 11.25 64.125V42.75H32.625Z" fill="#0779E4"/>
</g>
<defs>
<clipPath id="clip0">
<rect width="72" height="72" fill="white"/>
</clipPath>
</defs>
</svg>
