<svg width="102" height="102" viewBox="0 0 102 102" fill="none" xmlns="http://www.w3.org/2000/svg">
<path d="M85 53.1378V29.75C85 28.6228 84.5522 27.5418 83.7552 26.7448C82.9582 25.9478 81.8772 25.5 80.75 25.5H21.25C20.1228 25.5 19.0418 25.9478 18.2448 26.7448C17.4478 27.5418 17 28.6228 17 29.75V72.25C17 73.3772 17.4478 74.4582 18.2448 75.2552C19.0418 76.0522 20.1228 76.5 21.25 76.5H36.142L54.7995 45.3815C55.7952 43.7216 57.1559 42.3102 58.7782 41.2543C60.4006 40.1984 62.242 39.5258 64.163 39.2874C66.0839 39.049 68.0339 39.2511 69.8652 39.8784C71.6964 40.5058 73.3607 41.5418 74.732 42.908L85 53.1378ZM85 65.1355L68.731 48.926C68.2736 48.4711 67.7187 48.1262 67.1082 47.9176C66.4978 47.709 65.8479 47.6421 65.2077 47.7219C64.5676 47.8018 63.954 48.0264 63.4135 48.3786C62.873 48.7308 62.4198 49.2014 62.0882 49.7547L46.053 76.5H80.75C81.8772 76.5 82.9582 76.0522 83.7552 75.2552C84.5522 74.4582 85 73.3772 85 72.25V65.1355ZM21.25 17H80.75C84.1315 17 87.3745 18.3433 89.7656 20.7344C92.1567 23.1255 93.5 26.3685 93.5 29.75V72.25C93.5 75.6315 92.1567 78.8745 89.7656 81.2656C87.3745 83.6567 84.1315 85 80.75 85H21.25C17.8685 85 14.6255 83.6567 12.2344 81.2656C9.8433 78.8745 8.5 75.6315 8.5 72.25V29.75C8.5 26.3685 9.8433 23.1255 12.2344 20.7344C14.6255 18.3433 17.8685 17 21.25 17ZM34 55.25C30.6185 55.25 27.3755 53.9067 24.9844 51.5156C22.5933 49.1245 21.25 45.8815 21.25 42.5C21.25 39.1185 22.5933 35.8755 24.9844 33.4844C27.3755 31.0933 30.6185 29.75 34 29.75C37.3815 29.75 40.6245 31.0933 43.0156 33.4844C45.4067 35.8755 46.75 39.1185 46.75 42.5C46.75 45.8815 45.4067 49.1245 43.0156 51.5156C40.6245 53.9067 37.3815 55.25 34 55.25ZM34 46.75C35.1272 46.75 36.2082 46.3022 37.0052 45.5052C37.8022 44.7082 38.25 43.6272 38.25 42.5C38.25 41.3728 37.8022 40.2918 37.0052 39.4948C36.2082 38.6978 35.1272 38.25 34 38.25C32.8728 38.25 31.7918 38.6978 30.9948 39.4948C30.1978 40.2918 29.75 41.3728 29.75 42.5C29.75 43.6272 30.1978 44.7082 30.9948 45.5052C31.7918 46.3022 32.8728 46.75 34 46.75Z" fill="#8E8484"/>
</svg>
