<svg width="14" height="8" viewBox="0 0 14 8" fill="none" xmlns="http://www.w3.org/2000/svg">
<path d="M7.07102 5.314L12.021 0.364005C12.1133 0.268495 12.2236 0.192312 12.3456 0.139903C12.4676 0.0874937 12.5988 0.0599074 12.7316 0.0587536C12.8644 0.0575998 12.9961 0.0829022 13.119 0.133183C13.2419 0.183464 13.3535 0.257717 13.4474 0.35161C13.5413 0.445502 13.6156 0.557154 13.6658 0.68005C13.7161 0.802947 13.7414 0.934626 13.7403 1.06741C13.7391 1.20018 13.7115 1.3314 13.6591 1.45341C13.6067 1.57541 13.5305 1.68576 13.435 1.778L7.77802 7.435C7.59049 7.62248 7.33619 7.72779 7.07102 7.72779C6.80586 7.72779 6.55155 7.62248 6.36402 7.435L0.707021 1.778C0.611511 1.68576 0.535329 1.57541 0.48292 1.45341C0.430511 1.3314 0.402925 1.20018 0.401771 1.06741C0.400617 0.934626 0.425919 0.802947 0.4762 0.68005C0.526481 0.557154 0.600734 0.445502 0.694626 0.35161C0.788519 0.257717 0.900171 0.183464 1.02307 0.133183C1.14596 0.0829022 1.27764 0.0575998 1.41042 0.0587536C1.5432 0.0599074 1.67442 0.0874937 1.79643 0.139903C1.91843 0.192312 2.02877 0.268495 2.12102 0.364005L7.07102 5.314Z" fill="#666666"/>
</svg>
