<svg width="6" height="10" viewBox="0 0 6 10" fill="none" xmlns="http://www.w3.org/2000/svg">
<path d="M3.87599 4.95267L0.575993 1.65267C0.512319 1.59117 0.461531 1.51761 0.426591 1.43627C0.391652 1.35494 0.373261 1.26746 0.372492 1.17894C0.371723 1.09042 0.388591 1.00263 0.422112 0.920703C0.455632 0.838772 0.505134 0.764337 0.567729 0.701742C0.630324 0.639147 0.704759 0.589645 0.78669 0.556125C0.868621 0.522604 0.956407 0.505736 1.04493 0.506506C1.13345 0.507275 1.22093 0.525665 1.30226 0.560604C1.3836 0.595544 1.45716 0.646333 1.51866 0.710006L5.28999 4.48134C5.41497 4.60636 5.48518 4.7759 5.48518 4.95267C5.48518 5.12945 5.41497 5.29899 5.28999 5.42401L1.51866 9.19534C1.45716 9.25901 1.3836 9.3098 1.30226 9.34474C1.22093 9.37968 1.13345 9.39807 1.04493 9.39884C0.956407 9.39961 0.868621 9.38274 0.78669 9.34922C0.704759 9.3157 0.630325 9.2662 0.56773 9.2036C0.505135 9.14101 0.455632 9.06657 0.422112 8.98464C0.388591 8.90271 0.371723 8.81492 0.372492 8.72641C0.373261 8.63789 0.391652 8.55041 0.426592 8.46907C0.461531 8.38773 0.512319 8.31417 0.575993 8.25267L3.87599 4.95267Z" fill="#666666"/>
</svg>
