<svg width="6" height="10" viewBox="0 0 6 10" fill="none" xmlns="http://www.w3.org/2000/svg">
<path d="M2.12401 5.04733L5.42401 8.34733C5.48768 8.40883 5.53847 8.48239 5.57341 8.56373C5.60835 8.64506 5.62674 8.73254 5.62751 8.82106C5.62828 8.90958 5.61141 8.99737 5.57789 9.0793C5.54437 9.16123 5.49487 9.23566 5.43227 9.29826C5.36967 9.36085 5.29524 9.41035 5.21331 9.44388C5.13138 9.4774 5.04359 9.49426 4.95507 9.49349C4.86655 9.49273 4.77907 9.47433 4.69774 9.4394C4.6164 9.40446 4.54284 9.35367 4.48134 9.28999L0.710008 5.51866C0.585027 5.39364 0.514818 5.2241 0.514818 5.04733C0.514818 4.87055 0.585028 4.70101 0.710008 4.57599L4.48134 0.80466C4.54284 0.740987 4.6164 0.690199 4.69774 0.65526C4.77907 0.62032 4.86655 0.60193 4.95507 0.60116C5.04359 0.600391 5.13138 0.617259 5.21331 0.650779C5.29524 0.6843 5.36968 0.733802 5.43227 0.796397C5.49487 0.858992 5.54437 0.933427 5.57789 1.01536C5.61141 1.09729 5.62828 1.18508 5.62751 1.27359C5.62674 1.36211 5.60835 1.44959 5.57341 1.53093C5.53847 1.61227 5.48768 1.68583 5.42401 1.74733L2.12401 5.04733Z" fill="#666666"/>
</svg>
