<svg width="55" height="55" viewBox="0 0 55 55" fill="none" xmlns="http://www.w3.org/2000/svg">
<path d="M24.5093 20.4807V23.6363H22.1993V27.4932H24.5093V38.9584H29.2577V27.4932H32.4431C32.4431 27.4932 32.7433 25.6438 32.8877 23.6203H29.276V20.9849C29.276 20.5884 29.7939 20.059 30.3073 20.059H32.8923V16.0417H29.3746C24.3925 16.0417 24.5093 19.9032 24.5093 20.4807Z" fill="white"/>
<path d="M27.5 45.8333C32.3623 45.8333 37.0255 43.9017 40.4637 40.4635C43.9018 37.0254 45.8334 32.3622 45.8334 27.4999C45.8334 22.6376 43.9018 17.9745 40.4637 14.5363C37.0255 11.0981 32.3623 9.16659 27.5 9.16659C22.6377 9.16659 17.9746 11.0981 14.5364 14.5363C11.0982 17.9745 9.16671 22.6376 9.16671 27.4999C9.16671 32.3622 11.0982 37.0254 14.5364 40.4635C17.9746 43.9017 22.6377 45.8333 27.5 45.8333ZM27.5 50.4166C14.8432 50.4166 4.58337 40.1568 4.58337 27.4999C4.58337 14.843 14.8432 4.58325 27.5 4.58325C40.1569 4.58325 50.4167 14.843 50.4167 27.4999C50.4167 40.1568 40.1569 50.4166 27.5 50.4166Z" fill="white"/>
</svg>
