<svg width="55" height="55" viewBox="0 0 55 55" fill="none" xmlns="http://www.w3.org/2000/svg">
<path d="M38.9583 30.0895V38.5618H34.0473V30.6555C34.0473 28.6709 33.3368 27.3166 31.5585 27.3166C30.2018 27.3166 29.3929 28.2286 29.0377 29.1132C28.9093 29.4295 28.875 29.8695 28.875 30.3095V38.5618H23.9616C23.9616 38.5618 24.0281 25.1738 23.9616 23.7874H28.875V25.8797L28.8429 25.9278H28.875V25.882C29.5281 24.8736 30.6923 23.4391 33.3025 23.4391C36.5337 23.4391 38.9583 25.552 38.9583 30.0895ZM18.8214 16.6626C17.1416 16.6626 16.0416 17.7672 16.0416 19.2155C16.0416 20.6363 17.1095 21.7707 18.7573 21.7707H18.7893C20.5035 21.7707 21.5691 20.6341 21.5691 19.2155C21.537 17.7672 20.5035 16.6626 18.8214 16.6626ZM16.3327 38.5618H21.246V23.7874H16.3327V38.5618Z" fill="white"/>
<path d="M27.5 45.8333C32.3623 45.8333 37.0255 43.9017 40.4637 40.4635C43.9018 37.0254 45.8334 32.3622 45.8334 27.4999C45.8334 22.6376 43.9018 17.9745 40.4637 14.5363C37.0255 11.0981 32.3623 9.16659 27.5 9.16659C22.6377 9.16659 17.9746 11.0981 14.5364 14.5363C11.0983 17.9745 9.16671 22.6376 9.16671 27.4999C9.16671 32.3622 11.0983 37.0254 14.5364 40.4635C17.9746 43.9017 22.6377 45.8333 27.5 45.8333ZM27.5 50.4166C14.8432 50.4166 4.58337 40.1568 4.58337 27.4999C4.58337 14.843 14.8432 4.58325 27.5 4.58325C40.1569 4.58325 50.4167 14.843 50.4167 27.4999C50.4167 40.1568 40.1569 50.4166 27.5 50.4166Z" fill="white"/>
</svg>
