<svg width="24" height="24" viewBox="0 0 24 24" fill="none" xmlns="http://www.w3.org/2000/svg">
<path d="M10.686 12.071L15.636 17.021C15.7315 17.1133 15.8077 17.2236 15.8601 17.3456C15.9125 17.4676 15.9401 17.5988 15.9412 17.7316C15.9424 17.8644 15.9171 17.9961 15.8668 18.119C15.8165 18.2419 15.7423 18.3535 15.6484 18.4474C15.5545 18.5413 15.4428 18.6156 15.3199 18.6658C15.1971 18.7161 15.0654 18.7414 14.9326 18.7403C14.7998 18.7391 14.6686 18.7115 14.5466 18.6591C14.4246 18.6067 14.3142 18.5305 14.222 18.435L8.56499 12.778C8.37752 12.5905 8.27221 12.3362 8.27221 12.071C8.27221 11.8059 8.37752 11.5515 8.565 11.364L14.222 5.70702C14.3142 5.61151 14.4246 5.53533 14.5466 5.48292C14.6686 5.43051 14.7998 5.40292 14.9326 5.40177C15.0654 5.40062 15.1971 5.42592 15.3199 5.4762C15.4428 5.52648 15.5545 5.60073 15.6484 5.69463C15.7423 5.78852 15.8165 5.90017 15.8668 6.02307C15.9171 6.14596 15.9424 6.27764 15.9412 6.41042C15.9401 6.5432 15.9125 6.67442 15.8601 6.79643C15.8077 6.91843 15.7315 7.02877 15.636 7.12102L10.686 12.071Z" fill="black"/>
</svg>
