<svg width="16" height="16" viewBox="0 0 16 16" fill="none" xmlns="http://www.w3.org/2000/svg">
<g clip-path="url(#clip0)">
<path fill-rule="evenodd" clip-rule="evenodd" d="M15.571 0.571999C15.6994 0.63279 15.8078 0.728784 15.8838 0.848811C15.9597 0.968838 16 1.10796 16 1.25L14.777 0.667999C14.778 0.667999 14.777 0.667999 14.777 0.667999L14.762 0.679999L14.686 0.735999C14.5738 0.814935 14.4587 0.889654 14.341 0.959999C13.8737 1.23915 13.3844 1.47962 12.878 1.679C11.556 2.207 9.527 2.749 6.754 2.75C6.49669 2.58631 6.19796 2.49958 5.893 2.5H4C3.07097 2.49914 2.17061 2.82168 1.45347 3.41227C0.73632 4.00285 0.24711 4.82465 0.0698061 5.7366C-0.107498 6.64855 0.0381616 7.59378 0.481784 8.41005C0.925406 9.22631 1.63932 9.86271 2.501 10.21C2.50031 10.2233 2.49998 10.2367 2.5 10.25C2.5 12.57 2.986 14.18 3.313 15C3.575 15.66 4.21 16 4.83 16H6.027C6.712 16 7.255 15.611 7.573 15.143C7.89 14.677 8.041 14.053 7.883 13.447C7.683 12.68 7.501 11.612 7.5 10.264C9.894 10.35 11.677 10.841 12.878 11.321C13.3845 11.5203 13.8738 11.7608 14.341 12.04C14.4854 12.1271 14.6259 12.2205 14.762 12.32L14.776 12.332H14.778C14.888 12.4211 15.021 12.4772 15.1616 12.4939C15.3022 12.5106 15.4447 12.4872 15.5725 12.4263C15.7003 12.3654 15.8083 12.2696 15.8839 12.1499C15.9596 12.0302 15.9998 11.8916 16 11.75V1.25L14.777 0.667999C14.8868 0.578714 15.0196 0.522319 15.1601 0.505331C15.3006 0.488344 15.4431 0.511457 15.571 0.571999ZM4.002 10.5C4.035 12.469 4.45199 13.806 4.706 14.446C4.71 14.456 4.71599 14.466 4.733 14.476C4.76251 14.4927 4.79607 14.501 4.83 14.5H6.027C6.11 14.5 6.22899 14.453 6.332 14.3C6.38039 14.2319 6.41425 14.1546 6.43145 14.0729C6.44866 13.9912 6.44884 13.9068 6.432 13.825C6.15601 12.7365 6.01165 11.6189 6.002 10.496C5.96538 10.4986 5.9287 10.4999 5.892 10.5H4.002ZM7.5 8.763C10.101 8.85 12.073 9.383 13.435 9.929C13.845 10.093 14.201 10.259 14.5 10.412V2.588C14.2 2.742 13.846 2.907 13.435 3.071C12.073 3.616 10.1 4.15 7.5 4.237V8.763ZM1.5 6.5C1.5 5.83696 1.76339 5.20107 2.23223 4.73223C2.70107 4.26339 3.33695 4 4 4H5.893C5.952 4 6 4.048 6 4.107V8.893C6 8.92138 5.98872 8.94859 5.96866 8.96866C5.94859 8.98873 5.92137 9 5.893 9H4C3.33695 9 2.70107 8.73661 2.23223 8.26777C1.76339 7.79892 1.5 7.16304 1.5 6.5Z" fill="#BDBDBD"/>
</g>
<defs>
<clipPath id="clip0">
<rect width="16" height="16" fill="white"/>
</clipPath>
</defs>
</svg>
