<svg width="48" height="48" viewBox="0 0 48 48" fill="none" xmlns="http://www.w3.org/2000/svg">
<path d="M22.5 30H25.5V36H22.5V30Z" fill="#F37121"/>
<path d="M30 27H33V36H30V27Z" fill="#F37121"/>
<path d="M15 21H18V36H15V21Z" fill="#F37121"/>
<path d="M37.5 7.5H33V6C33 5.20435 32.6839 4.44129 32.1213 3.87868C31.5587 3.31607 30.7956 3 30 3H18C17.2044 3 16.4413 3.31607 15.8787 3.87868C15.3161 4.44129 15 5.20435 15 6V7.5H10.5C9.70435 7.5 8.94129 7.81607 8.37868 8.37868C7.81607 8.94129 7.5 9.70435 7.5 10.5V42C7.5 42.7957 7.81607 43.5587 8.37868 44.1213C8.94129 44.6839 9.70435 45 10.5 45H37.5C38.2956 45 39.0587 44.6839 39.6213 44.1213C40.1839 43.5587 40.5 42.7957 40.5 42V10.5C40.5 9.70435 40.1839 8.94129 39.6213 8.37868C39.0587 7.81607 38.2956 7.5 37.5 7.5ZM18 6H30V12H18V6ZM37.5 42H10.5V10.5H15V15H33V10.5H37.5V42Z" fill="#F37121"/>
</svg>
