<svg width="55" height="55" viewBox="0 0 55 55" fill="none" xmlns="http://www.w3.org/2000/svg">
<path d="M27.5 45.8333C32.3623 45.8333 37.0255 43.9017 40.4637 40.4635C43.9018 37.0254 45.8334 32.3622 45.8334 27.4999C45.8334 22.6376 43.9018 17.9745 40.4637 14.5363C37.0255 11.0981 32.3623 9.16659 27.5 9.16659C22.6377 9.16659 17.9746 11.0981 14.5364 14.5363C11.0983 17.9745 9.16671 22.6376 9.16671 27.4999C9.16671 32.3622 11.0983 37.0254 14.5364 40.4635C17.9746 43.9017 22.6377 45.8333 27.5 45.8333ZM27.5 50.4166C14.8432 50.4166 4.58337 40.1568 4.58337 27.4999C4.58337 14.843 14.8432 4.58325 27.5 4.58325C40.1569 4.58325 50.4167 14.843 50.4167 27.4999C50.4167 40.1568 40.1569 50.4166 27.5 50.4166Z" fill="white"/>
<path d="M38.9583 20.5035C38.115 20.8701 37.2097 21.1222 36.2587 21.2322C37.2304 20.6593 37.9729 19.7518 38.3258 18.6724C37.3999 19.2121 36.3896 19.5917 35.3375 19.7954C34.8949 19.3315 34.3624 18.9626 33.7726 18.7112C33.1828 18.4598 32.548 18.3312 31.9068 18.3333C29.3104 18.3333 27.2066 20.4072 27.2066 22.9624C27.2066 23.3245 27.2479 23.6774 27.3281 24.0166C25.4657 23.9282 23.6422 23.4525 21.9739 22.6199C20.3057 21.7874 18.8293 20.6162 17.6389 19.1812C17.2208 19.885 17.0007 20.6886 17.0018 21.5072C17.0018 23.1114 17.8337 24.5322 19.0941 25.3595C18.3481 25.3361 17.618 25.1375 16.9629 24.7797V24.837C16.97 25.9129 17.3497 26.953 18.0375 27.7803C18.7252 28.6077 19.6785 29.171 20.735 29.3745C20.0414 29.5579 19.3157 29.5845 18.6106 29.4524C18.918 30.378 19.5059 31.1848 20.2927 31.761C21.0796 32.3372 22.0263 32.6541 23.0014 32.6677C21.3284 33.9568 19.2743 34.6534 17.1623 34.6477C16.7841 34.6477 16.4106 34.6247 16.0416 34.5835C18.1969 35.9477 20.6959 36.6702 23.2466 36.6666C31.8954 36.6666 36.6231 29.6129 36.6231 23.4941L36.607 22.8937C37.529 22.2458 38.3256 21.4359 38.9583 20.5035Z" fill="white"/>
</svg>
