<svg width="24" height="24" viewBox="0 0 24 24" fill="none" xmlns="http://www.w3.org/2000/svg">
<path d="M10.875 16.875C10.875 17.1734 10.9935 17.4595 11.2045 17.6705C11.4155 17.8815 11.7016 18 12 18C12.2984 18 12.5845 17.8815 12.7955 17.6705C13.0065 17.4595 13.125 17.1734 13.125 16.875C13.125 16.5766 13.0065 16.2905 12.7955 16.0795C12.5845 15.8685 12.2984 15.75 12 15.75C11.7016 15.75 11.4155 15.8685 11.2045 16.0795C10.9935 16.2905 10.875 16.5766 10.875 16.875ZM11.25 9.75V14.0625C11.25 14.1656 11.3344 14.25 11.4375 14.25H12.5625C12.6656 14.25 12.75 14.1656 12.75 14.0625V9.75C12.75 9.64687 12.6656 9.5625 12.5625 9.5625H11.4375C11.3344 9.5625 11.25 9.64687 11.25 9.75ZM22.3992 20.0625L12.6492 3.1875C12.5039 2.93672 12.2531 2.8125 12 2.8125C11.7469 2.8125 11.4938 2.93672 11.3508 3.1875L1.6008 20.0625C1.31251 20.5641 1.67345 21.1875 2.25001 21.1875H21.75C22.3266 21.1875 22.6875 20.5641 22.3992 20.0625ZM4.03595 19.4086L12 5.62266L19.9641 19.4086H4.03595Z" fill="#FC1B17"/>
</svg>
