<svg width="40" height="40" viewBox="0 0 40 40" fill="none" xmlns="http://www.w3.org/2000/svg">
<path d="M20 40C8.954 40 0 31.046 0 20C0 8.954 8.954 0 20 0C31.046 0 40 8.954 40 20C40 31.046 31.046 40 20 40ZM20 36C24.2435 36 28.3131 34.3143 31.3137 31.3137C34.3143 28.3131 36 24.2435 36 20C36 15.7565 34.3143 11.6869 31.3137 8.68629C28.3131 5.68571 24.2435 4 20 4C15.7565 4 11.6869 5.68571 8.68629 8.68629C5.68571 11.6869 4 15.7565 4 20C4 24.2435 5.68571 28.3131 8.68629 31.3137C11.6869 34.3143 15.7565 36 20 36ZM22 22V30C22 30.5304 21.7893 31.0391 21.4142 31.4142C21.0391 31.7893 20.5304 32 20 32C19.4696 32 18.9609 31.7893 18.5858 31.4142C18.2107 31.0391 18 30.5304 18 30V22H10C9.46957 22 8.96086 21.7893 8.58579 21.4142C8.21071 21.0391 8 20.5304 8 20C8 19.4696 8.21071 18.9609 8.58579 18.5858C8.96086 18.2107 9.46957 18 10 18H18V10C18 9.46957 18.2107 8.96086 18.5858 8.58579C18.9609 8.21071 19.4696 8 20 8C20.5304 8 21.0391 8.21071 21.4142 8.58579C21.7893 8.96086 22 9.46957 22 10V18H30C30.5304 18 31.0391 18.2107 31.4142 18.5858C31.7893 18.9609 32 19.4696 32 20C32 20.5304 31.7893 21.0391 31.4142 21.4142C31.0391 21.7893 30.5304 22 30 22H22Z" fill="#F37121"/>
</svg>
