<svg width="48" height="48" viewBox="0 0 48 48" fill="none" xmlns="http://www.w3.org/2000/svg">
<path fill-rule="evenodd" clip-rule="evenodd" d="M16.3291 5.973C13.5856 6.71056 10.8598 7.51278 8.15414 8.379C7.90928 8.45458 7.69071 8.59771 7.52355 8.79194C7.35639 8.98617 7.24741 9.22362 7.20914 9.477C5.61014 21.168 9.30014 29.7 13.7011 35.319C15.9091 38.139 18.3001 40.227 20.2921 41.598C21.2911 42.282 22.1701 42.78 22.8631 43.098C23.2111 43.257 23.4931 43.365 23.7091 43.428C23.8044 43.4586 23.9016 43.4827 24.0001 43.5C24.0211 43.497 24.1141 43.485 24.2911 43.431C24.5071 43.365 24.7891 43.257 25.1371 43.098C25.8271 42.78 26.7121 42.282 27.7081 41.598C30.206 39.8454 32.4276 37.729 34.2991 35.319C38.7001 29.7 42.3901 21.168 40.7911 9.477C40.7529 9.22362 40.6439 8.98617 40.4767 8.79194C40.3096 8.59771 40.091 8.45458 39.8461 8.379C37.9681 7.779 34.8001 6.801 31.6711 5.973C28.4731 5.13 25.5301 4.5 24.0001 4.5C22.4701 4.5 19.5301 5.13 16.3291 5.973ZM15.5611 3.075C18.6901 2.247 22.0111 1.5 24.0001 1.5C25.9861 1.5 29.3101 2.247 32.4391 3.075C35.23 3.82432 38.0028 4.63955 40.7551 5.52C42.3391 6.024 43.5331 7.389 43.7641 9.072C45.4831 21.663 41.4961 30.993 36.6631 37.167C34.6036 39.8166 32.1584 42.1425 29.4091 44.067C28.4532 44.7366 27.4426 45.3247 26.3881 45.825C25.5781 46.197 24.7141 46.5 24.0001 46.5C23.2861 46.5 22.4221 46.197 21.6121 45.825C20.5574 45.3251 19.5468 44.737 18.5911 44.067C15.843 42.1422 13.3988 39.8164 11.3401 37.167C6.50114 30.993 2.51714 21.663 4.23614 9.072C4.35107 8.25621 4.69468 7.48965 5.22719 6.86104C5.7597 6.23244 6.45935 5.76748 7.24514 5.52C9.99748 4.63957 12.7703 3.82435 15.5611 3.075Z" fill="#F37121"/>
<path fill-rule="evenodd" clip-rule="evenodd" d="M32.5621 18.438C32.7018 18.5773 32.8126 18.7429 32.8882 18.9251C32.9638 19.1073 33.0027 19.3027 33.0027 19.5C33.0027 19.6973 32.9638 19.8927 32.8882 20.0749C32.8126 20.2571 32.7018 20.4227 32.5621 20.562L23.5621 29.562C23.4227 29.7017 23.2572 29.8125 23.075 29.8881C22.8927 29.9637 22.6974 30.0027 22.5001 30.0027C22.3028 30.0027 22.1074 29.9637 21.9252 29.8881C21.7429 29.8125 21.5774 29.7017 21.4381 29.562L16.9381 25.062C16.7986 24.9225 16.688 24.757 16.6125 24.5747C16.537 24.3925 16.4982 24.1972 16.4982 24C16.4982 23.8028 16.537 23.6075 16.6125 23.4252C16.688 23.243 16.7986 23.0775 16.9381 22.938C17.0775 22.7985 17.2431 22.6879 17.4253 22.6124C17.6075 22.5369 17.8028 22.4981 18.0001 22.4981C18.1973 22.4981 18.3926 22.5369 18.5748 22.6124C18.757 22.6879 18.9226 22.7985 19.0621 22.938L22.5001 26.379L30.4381 18.438C30.5774 18.2983 30.7429 18.1875 30.9252 18.1119C31.1074 18.0362 31.3028 17.9973 31.5001 17.9973C31.6974 17.9973 31.8927 18.0362 32.075 18.1119C32.2572 18.1875 32.4227 18.2983 32.5621 18.438Z" fill="#F37121"/>
</svg>
