<svg width="40" height="40" viewBox="0 0 40 40" fill="none" xmlns="http://www.w3.org/2000/svg">
<path d="M33.8141 8.87999L18.5041 24.19C18.9581 24.84 19.3441 25.542 19.6541 26.286L23.4741 35.484L33.8141 8.87799V8.87999ZM15.8101 21.496L31.1221 6.18399L4.51606 16.524L13.7141 20.346C14.4524 20.6522 15.1552 21.0378 15.8101 21.496ZM39.0461 5.77199L26.9921 36.784C26.2321 38.744 24.0381 39.75 22.0941 39.032C21.6205 38.857 21.1883 38.586 20.8245 38.2359C20.4607 37.8859 20.1732 37.4644 19.9801 36.998L16.1601 27.8C15.4168 26.0075 13.9925 24.5833 12.2001 23.84L3.00006 20.02C1.09206 19.226 0.220056 17.02 1.05606 15.088C1.26104 14.6159 1.55744 14.1891 1.92816 13.8321C2.29887 13.4751 2.73659 13.195 3.21606 13.008L34.2281 0.949992C34.9019 0.678437 35.6407 0.611048 36.3526 0.756209C37.0645 0.901371 37.7179 1.25267 38.2317 1.7664C38.7454 2.28012 39.0967 2.93358 39.2418 3.64544C39.387 4.3573 39.3196 5.09614 39.0481 5.76999L39.0461 5.77199Z" fill="#F37121"/>
</svg>
